<?xml version="1.0"?>
<svg xmlns="http://www.w3.org/2000/svg" xmlns:xlink="http://www.w3.org/1999/xlink" version="1.1" width="512"
     height="512" x="0" y="0" viewBox="0 0 512 512" style="enable-background:new 0 0 512 512" xml:space="preserve"
     class=""><g><g xmlns="http://www.w3.org/2000/svg"><path d="m376 482h-30c-8.271 0-15-6.729-15-15v-47h-150v47c0 8.271-6.729 15-15 15h-30c-8.284 0-15 6.716-15 15s6.716 15 15 15h240c8.284 0 15-6.716 15-15s-6.716-15-15-15z" fill="#ffffff"  style="" class=""/><path d="m241.05 151h29.9v30h-29.9z" fill="#ffffff"
                                                                                                                                                                                                                                                                         style="" class=""/><path d="m497 0h-482c-8.284 0-15 6.716-15 15v360c0 8.284 6.716 15 15 15h482c8.284 0 15-6.716 15-15v-360c0-8.284-6.716-15-15-15zm-316.05 256c0 8.284-6.716 15-15 15s-15-6.716-15-15v-46h-29.9v46c0 8.284-6.716 15-15 15s-15-6.716-15-15v-120c0-8.284 6.716-15 15-15h59.9c8.284 0 15 6.716 15 15zm120-60c0 8.284-6.716 15-15 15h-44.9v45c0 8.284-6.716 15-15 15s-15-6.716-15-15v-120c0-8.284 6.716-15 15-15h59.9c8.284 0 15 6.716 15 15zm105.1 45c8.284 0 15 6.716 15 15s-6.716 15-15 15h-60.1c-8.284 0-15-6.716-15-15s6.716-15 15-15h15.1v-90h-15c-8.284 0-15-6.716-15-15s6.716-15 15-15h60c8.284 0 15 6.716 15 15s-6.716 15-15 15h-15v90z" fill="#ffffff"
                                                                                                                                                                                                                                                                                                                         style="" class=""/><path d="m121.05 151h29.9v29h-29.9z" fill="#ffffff"
                                                                                                                                                                                                                                                                                                                                                  style="" class=""/></g></g></svg>
