<?xml version="1.0" encoding="UTF-8"?>
<svg xmlns="http://www.w3.org/2000/svg" xmlns:xlink="http://www.w3.org/1999/xlink" viewBox="0 0 64 64" width="64px" height="64px">
<g id="surface7556279">
<path style=" stroke:none;fill-rule:nonzero;fill:rgb(100%,100%,100%);fill-opacity:1;" d="M 6.398438 5.121094 C 5.691406 5.121094 5.121094 5.691406 5.121094 6.398438 L 5.121094 57.601562 C 5.121094 58.308594 5.691406 58.878906 6.398438 58.878906 L 57.601562 58.878906 C 58.308594 58.878906 58.878906 58.308594 58.878906 57.601562 L 58.878906 6.398438 C 58.878906 5.691406 58.308594 5.121094 57.601562 5.121094 Z M 7.679688 7.679688 L 56.320312 7.679688 L 56.320312 56.320312 L 7.679688 56.320312 Z M 19.199219 29.441406 L 19.199219 33.851562 L 25.601562 33.851562 L 25.601562 53.761719 L 30.71875 53.761719 L 30.71875 33.851562 L 37.121094 33.851562 L 37.121094 29.441406 Z M 46.964844 29.453125 C 42.976562 29.4375 38.421875 30.644531 38.421875 36.253906 C 38.421875 43.589844 48.304688 43.589844 48.304688 46.898438 C 48.304688 47.214844 48.4375 49.492188 44.949219 49.492188 C 41.460938 49.492188 38.554688 47.300781 38.554688 47.300781 L 38.554688 52.621094 C 38.554688 52.621094 53.761719 57.542969 53.761719 46.449219 C 53.761719 39.25 43.789062 39.609375 43.789062 36.03125 C 43.789062 34.644531 44.773438 33.351562 47.5 33.351562 C 50.226562 33.351562 52.640625 34.960938 52.640625 34.960938 L 52.824219 30.21875 C 52.824219 30.21875 50.066406 29.464844 46.964844 29.453125 Z M 46.964844 29.453125 "/>
</g>
</svg>
